<?xml version="1.0" encoding="UTF-8"?>
<svg xmlns="http://www.w3.org/2000/svg" version="1.1" viewBox="0 0 50 50">
  <defs>
    <style>
      .cls-1 {
        fill: #4f5457;
      }
    </style>
  </defs>
  <!-- Generator: Adobe Illustrator 28.7.1, SVG Export Plug-In . SVG Version: 1.2.0 Build 142)  -->
  <g>
    <g id="Layer_1">
      <g>
        <g>
          <path class="cls-1" d="M24.98,47.2c-5.06,0-10.12.02-15.18,0-2.51-.01-4.22-1.83-4.12-4.27.04-1.06.3-2.11.47-3.16.21-1.35.44-2.69.66-4.04.26-1.59.52-3.17.77-4.76.25-1.59.47-3.18.72-4.77.23-1.53.48-3.07.72-4.6.21-1.35.48-2.69.64-4.04.22-1.92,1.99-3.54,3.9-3.53,7.65.02,15.29,0,22.94,0,1.95,0,3.59,1.54,3.85,3.48.28,2.07.67,4.13,1,6.2.25,1.59.46,3.18.71,4.77.2,1.29.45,2.58.65,3.87.25,1.59.47,3.18.72,4.77.2,1.29.46,2.58.63,3.87.14,1.09.5,2.18.15,3.29-.58,1.82-1.98,2.89-3.96,2.91-5.08.04-10.16.01-15.23.01ZM25.04,45.64c4.55,0,9.09,0,13.64,0,.7,0,1.39-.05,2.09-.12,1.15-.11,2.18-1.63,1.95-2.75-.21-1.04-.37-2.1-.53-3.15-.24-1.59-.46-3.18-.71-4.77-.32-2.01-.68-4.01-1-6.02-.29-1.83-.53-3.66-.82-5.49-.28-1.81-.63-3.61-.89-5.42-.2-1.43-1.16-2.34-2.59-2.34-7.45,0-14.91,0-22.36,0-1.52,0-2.28.83-2.57,2.06-.25,1.05-.32,2.14-.49,3.22-.21,1.35-.44,2.69-.65,4.04-.2,1.25-.41,2.51-.6,3.77-.24,1.59-.46,3.18-.71,4.77-.25,1.59-.52,3.17-.78,4.76-.22,1.35-.37,2.71-.67,4.04-.37,1.64.45,2.85,1.49,3.18.47.15.99.23,1.49.23,4.91.02,9.81,0,14.72,0Z"/>
          <path class="cls-1" d="M33.73,47.5c-1.47,0-2.93,0-4.37,0h-4.38s-4.43,0-4.43,0c-3.58,0-7.17,0-10.75-.01-1.29,0-2.45-.48-3.25-1.32-.8-.84-1.21-1.99-1.16-3.26.03-.77.17-1.54.31-2.28.06-.31.11-.61.16-.92.14-.88.28-1.75.43-2.63l.45-2.78c.19-1.13.37-2.26.55-3.39.14-.87.26-1.73.39-2.6.11-.72.21-1.45.32-2.17.22-1.43.44-2.85.67-4.28l.05-.32c.07-.43.14-.86.22-1.3.15-.89.31-1.82.42-2.73.24-2.06,2.15-3.79,4.18-3.79h.01c5.58.02,11.16.01,16.74.01h6.2c2.07,0,3.86,1.6,4.14,3.73.17,1.29.4,2.59.61,3.85.13.78.26,1.56.39,2.33.12.8.24,1.59.35,2.39.11.8.23,1.59.35,2.38.1.66.22,1.33.34,1.99.11.62.22,1.25.32,1.87.13.83.25,1.67.38,2.51.11.76.22,1.51.34,2.27.08.51.17,1.02.26,1.53.14.78.27,1.56.37,2.35.03.25.08.49.12.74.15.86.31,1.75.02,2.68-.63,1.96-2.17,3.1-4.24,3.12-2.15.02-4.33.02-6.49.02ZM24.98,46.9h4.39c3.56.01,7.23.02,10.85-.01,1.82-.01,3.13-.97,3.68-2.7.25-.78.11-1.57-.03-2.39-.04-.26-.09-.51-.12-.77-.1-.78-.24-1.55-.37-2.32-.09-.51-.18-1.03-.26-1.54-.12-.76-.23-1.51-.34-2.27-.12-.83-.25-1.67-.38-2.5-.1-.62-.21-1.24-.32-1.87-.12-.67-.23-1.33-.34-2-.12-.8-.24-1.59-.35-2.39-.11-.8-.23-1.59-.35-2.38-.12-.78-.25-1.55-.39-2.33-.22-1.27-.44-2.58-.61-3.87-.25-1.84-1.78-3.22-3.56-3.22h-6.2c-5.58,0-11.16,0-16.74-.01h0c-1.74,0-3.39,1.49-3.59,3.27-.11.93-.27,1.86-.42,2.77-.07.43-.15.86-.22,1.29l-.05.32c-.23,1.43-.45,2.85-.67,4.28-.11.72-.22,1.44-.32,2.17-.13.87-.26,1.74-.39,2.61-.18,1.13-.36,2.26-.55,3.4l-.45,2.78c-.14.87-.29,1.75-.42,2.62-.05.31-.11.62-.16.94-.13.72-.27,1.47-.3,2.19-.04,1.1.31,2.11,1,2.83.69.73,1.7,1.13,2.83,1.13,3.58.02,7.17.02,10.75.01h4.43ZM32.31,45.94c-1.21,0-2.42,0-3.63,0h-6.98c-3.79,0-7.58,0-11.38-.01-.53,0-1.08-.09-1.57-.24-1.15-.36-2.1-1.69-1.69-3.53.2-.89.33-1.82.47-2.72.06-.43.13-.87.2-1.3l.28-1.71c.17-1.01.34-2.03.49-3.04.14-.88.27-1.76.39-2.64.1-.71.21-1.42.31-2.13.16-1.04.33-2.08.49-3.12l.36-2.22c.13-.82.27-1.64.4-2.46.06-.37.1-.74.15-1.1.09-.7.18-1.43.35-2.14.36-1.49,1.35-2.28,2.86-2.28,5.47,0,10.93,0,16.4,0h5.96c1.56,0,2.66.99,2.89,2.59.15,1.08.34,2.17.52,3.23.13.73.25,1.46.37,2.19.14.87.26,1.75.39,2.62.14.96.28,1.92.43,2.87.16,1.02.34,2.04.51,3.07.17.98.34,1.97.49,2.96.15.92.28,1.84.41,2.76.1.67.19,1.35.3,2.02l.04.29c.14.94.29,1.91.49,2.85.13.63-.08,1.39-.55,2.04-.45.61-1.06,1-1.66,1.06-.77.08-1.46.12-2.12.12-2.12,0-4.25,0-6.37,0ZM25.05,45.34h3.64c3.33,0,6.67,0,10,0,.63,0,1.3-.04,2.06-.11.43-.04.9-.35,1.24-.82.37-.5.54-1.11.45-1.57-.2-.96-.35-1.93-.49-2.88l-.04-.29c-.1-.67-.2-1.35-.3-2.02-.13-.92-.26-1.83-.41-2.75-.16-.98-.32-1.97-.49-2.95-.17-1.02-.35-2.05-.51-3.07-.15-.96-.29-1.92-.43-2.88-.13-.87-.25-1.74-.39-2.62-.12-.73-.24-1.45-.36-2.18-.18-1.06-.37-2.16-.52-3.25-.18-1.31-1.04-2.08-2.3-2.08h-5.96c-5.47,0-10.93,0-16.4,0-1.24,0-1.99.6-2.29,1.83-.16.67-.25,1.38-.34,2.07-.05.37-.09.75-.15,1.12-.13.83-.26,1.65-.4,2.47l-.36,2.21c-.17,1.04-.33,2.08-.49,3.12-.11.71-.21,1.42-.31,2.12-.13.88-.26,1.77-.39,2.65-.16,1.02-.33,2.03-.5,3.05l-.28,1.71c-.07.43-.13.86-.2,1.29-.13.91-.27,1.85-.47,2.76-.33,1.49.4,2.55,1.29,2.84.44.14.92.21,1.4.21,3.79.01,7.58.01,11.37.01h3.35Z"/>
        </g>
        <g>
          <path class="cls-1" d="M32.21,11.09c0,.53,0,7.13,0,7.66,0,.42-.14.71-.6.71-.45,0-.62-.26-.62-.69,0-.84-.02-7.74,0-8.57.09-2.81-1.81-5.27-4.46-5.96-1.93-.51-3.72-.13-5.28,1.13-1.59,1.29-2.34,2.97-2.29,5.01.02.82,0,7.7,0,8.52,0,.36-.21.55-.56.57-.35.02-.63-.15-.63-.5.02-1.6-.2-9.28.26-10.86.73-2.54,2.37-4.24,4.88-4.98,2.75-.81,5.23-.15,7.26,1.85,1.34,1.32,2.02,3,2.04,4.91,0,.4,0,.8,0,1.2Z"/>
          <path class="cls-1" d="M18.34,19.77c-.26,0-.48-.08-.64-.23-.15-.14-.23-.34-.23-.57,0-.35,0-1.01-.01-1.82-.03-2.93-.08-7.84.28-9.11.76-2.67,2.47-4.41,5.08-5.18,2.81-.83,5.43-.16,7.55,1.93,1.37,1.35,2.11,3.12,2.13,5.12,0,.27,0,.53,0,.8v1.13c0,1.77,0,6.48,0,6.92,0,.33-.08.59-.25.77-.16.16-.37.24-.65.25-.25.02-.5-.08-.66-.24-.17-.17-.26-.43-.26-.75,0-.3,0-1.41,0-2.73,0-2.37,0-5.31,0-5.85.09-2.62-1.7-5-4.24-5.67-1.85-.48-3.54-.12-5.02,1.08-1.51,1.22-2.23,2.79-2.18,4.77.02.86,0,7.76,0,8.52,0,.51-.33.84-.85.86-.02,0-.05,0-.07,0ZM25.12,3.09c-.69,0-1.4.11-2.13.32-2.4.71-3.97,2.32-4.68,4.78-.34,1.18-.29,6.23-.26,8.94,0,.82.02,1.48.01,1.84,0,.08.02.11.04.13.05.05.15.07.27.07.24-.01.28-.12.29-.28,0-.74.02-7.68,0-8.51-.05-2.15.76-3.92,2.4-5.25,1.64-1.33,3.51-1.73,5.54-1.19,2.81.74,4.78,3.37,4.68,6.26-.02.53-.01,3.59,0,5.83,0,1.33,0,2.43,0,2.74,0,.16.03.28.08.33.04.04.13.07.24.06.11,0,.19-.02.23-.07.05-.06.08-.18.08-.34,0-.45,0-4.99,0-6.93v-1.13c0-.27,0-.53,0-.8-.02-1.86-.67-3.45-1.95-4.7-1.41-1.39-3.06-2.1-4.84-2.1Z"/>
        </g>
      </g>
    </g>
  </g>
</svg>