<?xml version="1.0" encoding="UTF-8"?>
<svg xmlns="http://www.w3.org/2000/svg" version="1.1" viewBox="0 0 50 50">
  <defs>
    <style>
      .cls-1 {
        fill: #4f5457;
      }
    </style>
  </defs>
  <!-- Generator: Adobe Illustrator 28.7.1, SVG Export Plug-In . SVG Version: 1.2.0 Build 142)  -->
  <g>
    <g id="Layer_1">
      <g>
        <path class="cls-1" d="M25,4.75c5.25,0,9.52,4.27,9.52,9.52s-4.27,9.52-9.52,9.52-9.52-4.27-9.52-9.52,4.27-9.52,9.52-9.52M25,2.5c-6.49,0-11.77,5.27-11.77,11.77s5.27,11.77,11.77,11.77,11.77-5.27,11.77-11.77S31.49,2.5,25,2.5h0Z"/>
        <path class="cls-1" d="M33.5,28.86c.26.15.55.3.88.44.95.4,1.93.7,3.02,1.03,2.1.62,4.08,1.21,5.35,2.62,1.5,1.69,1.55,4.36,1.47,7.19,0,.43-.02.95-.18,1.21-.1.16-.36.35-.79.58-2.73,1.49-5.91,2.02-9.2,2.47l-.32.04c-3.01.41-5.85.8-8.71.8s-5.95-.42-8.91-.84c-3.51-.5-6.64-1.03-9.31-2.48-.22-.12-.67-.37-.81-.59-.16-.26-.18-.86-.19-1.23-.08-2.7-.03-5.48,1.46-7.15,1.27-1.41,3.25-2,5.4-2.64,1.04-.31,2.02-.61,2.95-1.01.34-.14.64-.29.92-.45,2.21,1.74,5.35,2.79,8.48,2.79,3.29,0,6.26-.98,8.5-2.79M33.33,26.25c-.2,0-.4.08-.55.23-1.88,1.88-4.64,2.92-7.78,2.92-2.95,0-6.01-1.15-7.78-2.92-.15-.14-.35-.22-.56-.22-.15,0-.3.04-.43.13-.49.33-.93.61-1.49.85-.85.36-1.79.64-2.78.94-2.32.69-4.71,1.41-6.38,3.28-2.06,2.29-2.13,5.57-2.04,8.72.02.67.05,1.6.53,2.37.41.64,1.05,1.04,1.62,1.35,3.03,1.65,6.45,2.23,10.09,2.75,3.01.42,6.12.86,9.22.86s6.23-.44,9.33-.86c3.53-.49,6.93-1.07,9.98-2.73.56-.3,1.21-.71,1.62-1.35.49-.77.52-1.65.53-2.37.09-3.17.02-6.43-2.04-8.74-1.68-1.87-4.06-2.59-6.38-3.28-.99-.3-1.93-.58-2.78-.94-.56-.25-1-.53-1.49-.85-.14-.09-.29-.13-.44-.13h0Z"/>
      </g>
    </g>
  </g>
</svg>